<svg width="44" height="44" viewBox="0 0 44 44" fill="none" xmlns="http://www.w3.org/2000/svg">
<path d="M0.477381 7.65411C-0.807693 9.54835 0.652698 12.0193 3.05715 12.0193H25.7365C27.0078 12.0193 28.0386 12.9799 28.0386 14.165C28.0386 15.35 27.0078 16.3107 25.7365 16.3107H11.4082C9.72247 16.3107 8.35589 17.5844 8.35589 19.1555V25.5152C8.35589 27.0863 9.72247 28.36 11.4082 28.36H25.797C27.035 28.36 28.0386 29.2954 28.0386 30.4492C28.0386 31.603 27.035 32.5385 25.797 32.5385H3.22584C0.782765 32.5385 -0.670214 35.0804 0.692586 36.9701L4.85508 42.742C5.42218 43.5283 6.37192 44 7.38834 44H34.0463C35.0582 44 36.0041 43.5326 36.5722 42.7522L43.856 32.7446C43.8692 32.7262 43.8915 32.7154 43.9151 32.7154C43.9547 32.7154 43.9867 32.6854 43.9867 32.6487V32.5693C43.9867 32.5664 43.9876 32.5634 43.9894 32.5611L43.9988 32.5482C44.0018 32.5439 43.9987 32.5385 43.9933 32.5385C43.9897 32.5385 43.9867 32.5357 43.9867 32.5321V12.864C43.9867 12.3128 43.8149 11.7735 43.4921 11.3115L36.4919 1.29237C35.9286 0.486236 34.9664 0 33.9341 0H7.35145C6.30475 0 5.33105 0.4999 4.77152 1.3244L0.477381 7.65411Z" fill="#1447E6"/>
</svg>
